<?xml version="1.0" encoding="UTF-8"?>
<svg id="Layer_2" data-name="Layer 2" xmlns="http://www.w3.org/2000/svg" viewBox="0 0 98.38 98.38">
  <defs>
    <style>
      .cls-1 {
        fill: none;
        stroke: #e76f51;
      }

      .cls-1, .cls-2 {
        stroke-miterlimit: 10;
      }

      .cls-2 {
        fill: #fff;
        stroke: #264653;
        stroke-width: 1.5px;
      }

      .cls-3 {
        fill: #264653;
      }

      .cls-3, .cls-4 {
        stroke-width: 0px;
      }

      .cls-4 {
        fill: #e9c46a;
      }
    </style>
  </defs>
  <g id="clothesswap">
    <rect class="cls-2" x=".75" y=".75" width="96.88" height="96.88"/>
    <path class="cls-4" d="M19.9,63.92v18.38c2.02.51,4.74.99,7.98.97,3.07-.02,5.66-.47,7.62-.97.08-6.37.16-12.74.24-19.1,1.52,1.17,3.03,2.35,4.55,3.52,1.11-1.54,2.22-3.08,3.33-4.61-2.67-2.35-5.34-4.7-8.01-7.05-.96-.06-1.92-.13-2.88-.19-.05,2.53-2.06,4.6-4.55,4.74-2.54.14-4.8-1.79-5.06-4.36h-3.4c-2.41,2.69-4.83,5.38-7.24,8.07,1.28,1.32,2.56,2.65,3.84,3.97,1.19-1.13,2.38-2.25,3.58-3.38Z"/>
    <path class="cls-3" d="M59.54,13.5c1.04-.29,2.08-.59,3.12-.88.77,5.97,3.2,9.93,4.96,9.84,1.74-.09,3.67-4.18,3.92-9.92.96-.03,1.92-.05,2.88-.08-.19,1.73-.37,3.47-.56,5.2.8,1,1.81,2.6,1.92,4.64.13,2.48-1.19,3.7-1.6,5.84-.64,3.33,1.44,6.09,3.12,8.8,2.06,3.33,4.62,8.37,6.64,15.76-3.53,1.26-9.09,2.76-16.01,2.74-7.31-.02-13.11-1.73-16.7-3.09,3.83-6.29,6.49-11.56,8.23-15.32,1.81-3.89,2.68-6.26,1.94-8.8-.49-1.7-1.5-2.79-1.6-5.03-.09-1.95.56-3.58,1.14-4.69-.47-1.67-.94-3.33-1.41-5Z"/>
    <g>
      <path class="cls-1" d="M29.68,45.35c.02-.83.31-8.07,6.47-12.49,4.91-3.51,10.21-2.86,11.38-2.69"/>
      <path class="cls-1" d="M44.8,27.02c.91,1.05,1.82,2.1,2.73,3.15-1.04.87-2.07,1.74-3.11,2.61"/>
    </g>
    <g>
      <path class="cls-1" d="M69.08,61.72c-.02.83-.31,8.07-6.47,12.49-4.91,3.51-10.21,2.86-11.38,2.69"/>
      <path class="cls-1" d="M53.96,80.05c-.91-1.05-1.82-2.1-2.73-3.15,1.04-.87,2.07-1.74,3.11-2.61"/>
    </g>
  </g>
</svg>