<?xml version="1.0" encoding="UTF-8"?>
<svg id="Layer_2" data-name="Layer 2" xmlns="http://www.w3.org/2000/svg" xmlns:xlink="http://www.w3.org/1999/xlink" viewBox="0 0 98.38 98.38">
  <defs>
    <style>
      .cls-1, .cls-2, .cls-3, .cls-4 {
        fill: none;
      }

      .cls-1, .cls-2, .cls-4 {
        stroke: #f4a261;
      }

      .cls-1, .cls-4, .cls-5, .cls-6 {
        stroke-miterlimit: 10;
      }

      .cls-1, .cls-5, .cls-6 {
        stroke-width: 1.5px;
      }

      .cls-2 {
        stroke-linecap: round;
        stroke-linejoin: round;
      }

      .cls-2, .cls-4 {
        stroke-width: 1.4px;
      }

      .cls-3 {
        stroke-width: 0px;
      }

      .cls-5 {
        fill: url(#New_Pattern);
      }

      .cls-5, .cls-6 {
        stroke: #264653;
      }

      .cls-6 {
        fill: #fff;
      }
    </style>
    <pattern id="New_Pattern" data-name="New Pattern" x="0" y="0" width="60" height="50" patternTransform="translate(-134.74 -201.72)" patternUnits="userSpaceOnUse" viewBox="0 0 60 50">
      <g>
        <rect class="cls-3" width="60" height="50"/>
        <g id="fiets_icon">
          <path class="cls-1" d="M45.83,41.84"/>
          <path class="cls-4" d="M55.86,41.84c-.14,3.55-3.12,6.44-6.69,6.51-3.68.07-6.86-2.9-6.95-6.62-.09-3.8,3.07-6.98,6.88-6.95,3.82.03,6.9,3.3,6.76,7.05Z"/>
          <circle class="cls-4" cx="60" cy="41.57" r="1.61"/>
          <path class="cls-2" d="M57.94,41.57h-8.9c1.82-3.16,3.65-6.32,5.47-9.48,1.6,2.68,3.19,5.36,4.79,8.04"/>
          <polyline class="cls-2" points="49.72 29.28 53.16 29.28 56.36 29.28"/>
          <line class="cls-2" x1="54.51" y1="32.09" x2="53.07" y2="29.28"/>
        </g>
        <g id="fiets_icon-2" data-name="fiets_icon">
          <path class="cls-4" d="M25.86,54.34c-.14,3.55-3.12,6.44-6.69,6.51-3.68.07-6.86-2.9-6.95-6.62-.09-3.8,3.07-6.98,6.88-6.95,3.82.03,6.9,3.3,6.76,7.05Z"/>
          <path class="cls-4" d="M47.78,54.34c-.14,3.55-3.12,6.44-6.69,6.51-3.68.07-6.86-2.9-6.95-6.62-.09-3.8,3.07-6.98,6.88-6.95,3.82.03,6.9,3.3,6.76,7.05Z"/>
          <path class="cls-2" d="M27.94,54.07h-8.9c1.82-3.16,3.65-6.32,5.47-9.48,1.6,2.68,3.19,5.36,4.79,8.04"/>
          <polyline class="cls-2" points="19.72 41.78 23.16 41.78 26.36 41.78"/>
          <line class="cls-2" x1="24.51" y1="44.59" x2="23.07" y2="41.78"/>
          <path class="cls-2" d="M38.19,39.51c-1.41-.72-2.99-.3-3.64.74-.64,1.04-.08,2.29-.03,2.4,2.15,3.81,4.29,7.61,6.44,11.42"/>
          <path class="cls-2" d="M30.84,52.7c1.57-2.74,3.14-5.48,4.72-8.22"/>
        </g>
        <g id="fiets_icon-3" data-name="fiets_icon">
          <path class="cls-4" d="M17.78,41.84c-.14,3.55-3.12,6.44-6.69,6.51-3.68.07-6.86-2.9-6.95-6.62-.09-3.8,3.07-6.98,6.88-6.95,3.82.03,6.9,3.3,6.76,7.05Z"/>
          <circle class="cls-4" cx="0" cy="41.57" r="1.61"/>
          <path class="cls-2" d="M8.19,27.01c-1.41-.72-2.99-.3-3.64.74-.64,1.04-.08,2.29-.03,2.4,2.15,3.81,4.29,7.61,6.44,11.42"/>
          <path class="cls-2" d="M1.11,39.55"/>
          <path class="cls-2" d="M.84,40.2c1.57-2.74,3.14-5.48,4.72-8.22"/>
        </g>
        <g id="fiets_icon-4" data-name="fiets_icon">
          <path class="cls-1" d="M45.83,16.84"/>
          <path class="cls-4" d="M55.86,16.84c-.14,3.55-3.12,6.44-6.69,6.51-3.68.07-6.86-2.9-6.95-6.62-.09-3.8,3.07-6.98,6.88-6.95,3.82.03,6.9,3.3,6.76,7.05Z"/>
          <circle class="cls-4" cx="60" cy="16.57" r="1.61"/>
          <path class="cls-2" d="M57.94,16.57h-8.9c1.82-3.16,3.65-6.32,5.47-9.48,1.6,2.68,3.19,5.36,4.79,8.04"/>
          <polyline class="cls-2" points="49.72 4.27 53.16 4.27 56.36 4.27"/>
          <line class="cls-2" x1="54.51" y1="7.09" x2="53.07" y2="4.27"/>
        </g>
        <g id="fiets_icon-5" data-name="fiets_icon">
          <path class="cls-1" d="M15.83,29.34"/>
          <path class="cls-4" d="M25.86,29.34c-.14,3.55-3.12,6.44-6.69,6.51-3.68.07-6.86-2.9-6.95-6.62-.09-3.8,3.07-6.98,6.88-6.95,3.82.03,6.9,3.3,6.76,7.05Z"/>
          <path class="cls-4" d="M47.78,29.34c-.14,3.55-3.12,6.44-6.69,6.51-3.68.07-6.86-2.9-6.95-6.62-.09-3.8,3.07-6.98,6.88-6.95,3.82.03,6.9,3.3,6.76,7.05Z"/>
          <circle class="cls-4" cx="30" cy="29.07" r="1.61"/>
          <path class="cls-2" d="M27.94,29.07h-8.9c1.82-3.16,3.65-6.32,5.47-9.48,1.6,2.68,3.19,5.36,4.79,8.04"/>
          <polyline class="cls-2" points="19.72 16.77 23.16 16.77 26.36 16.77"/>
          <line class="cls-2" x1="24.51" y1="19.59" x2="23.07" y2="16.77"/>
          <path class="cls-2" d="M38.19,14.51c-1.41-.72-2.99-.3-3.64.74-.64,1.04-.08,2.29-.03,2.4,2.15,3.81,4.29,7.61,6.44,11.42"/>
          <path class="cls-2" d="M31.11,27.05"/>
          <path class="cls-2" d="M30.84,27.7c1.57-2.74,3.14-5.48,4.72-8.22"/>
        </g>
        <g id="fiets_icon-6" data-name="fiets_icon">
          <path class="cls-4" d="M17.78,16.84c-.14,3.55-3.12,6.44-6.69,6.51-3.68.07-6.86-2.9-6.95-6.62-.09-3.8,3.07-6.98,6.88-6.95,3.82.03,6.9,3.3,6.76,7.05Z"/>
          <circle class="cls-4" cx="0" cy="16.57" r="1.61"/>
          <path class="cls-2" d="M8.19,2.01c-1.41-.72-2.99-.3-3.64.74-.64,1.04-.08,2.29-.03,2.4,2.15,3.81,4.29,7.61,6.44,11.42"/>
          <path class="cls-2" d="M1.11,14.55"/>
          <path class="cls-2" d="M.84,15.2c1.57-2.74,3.14-5.48,4.72-8.22"/>
        </g>
        <g id="fiets_icon-7" data-name="fiets_icon">
          <path class="cls-1" d="M15.83,4.34"/>
          <path class="cls-4" d="M25.86,4.34c-.14,3.55-3.12,6.44-6.69,6.51-3.68.07-6.86-2.9-6.95-6.62-.09-3.8,3.07-6.98,6.88-6.95,3.82.03,6.9,3.3,6.76,7.05Z"/>
          <path class="cls-4" d="M47.78,4.34c-.14,3.55-3.12,6.44-6.69,6.51-3.68.07-6.86-2.9-6.95-6.62-.09-3.8,3.07-6.98,6.88-6.95,3.82.03,6.9,3.3,6.76,7.05Z"/>
          <circle class="cls-4" cx="30" cy="4.07" r="1.61"/>
          <path class="cls-2" d="M27.94,4.07h-8.9c1.82-3.16,3.65-6.32,5.47-9.48,1.6,2.68,3.19,5.36,4.79,8.04"/>
          <path class="cls-2" d="M38.19-10.49c-1.41-.72-2.99-.3-3.64.74-.64,1.04-.08,2.29-.03,2.4,2.15,3.81,4.29,7.61,6.44,11.42"/>
          <path class="cls-2" d="M31.11,2.05"/>
          <path class="cls-2" d="M30.84,2.7c1.57-2.74,3.14-5.48,4.72-8.22"/>
        </g>
      </g>
    </pattern>
  </defs>
  <g id="vierkant_met_fietsen" data-name="vierkant met fietsen">
    <rect id="DEZE" class="cls-6" x=".75" y=".75" width="96.88" height="96.88"/>
    <rect class="cls-5" x=".75" y=".75" width="96.88" height="96.88"/>
  </g>
</svg>