<?xml version="1.0" encoding="UTF-8"?>
<svg id="Layer_2" data-name="Layer 2" xmlns="http://www.w3.org/2000/svg" viewBox="0 0 98.38 98.38">
  <defs>
    <style>
      .cls-1 {
        fill: #fff;
        stroke: #264653;
        stroke-miterlimit: 10;
        stroke-width: 1.5px;
      }

      .cls-2 {
        fill: #2a9d8f;
        stroke-width: 0px;
      }
    </style>
  </defs>
  <g id="repair">
    <rect class="cls-1" x=".75" y=".75" width="96.88" height="96.88"/>
    <path class="cls-2" d="M80.97,22.27c-.5-.89-3.45-.16-5.03.43-.94.35-2.77,1.06-4.31,2.87-.26.31-.91,1.11-1.44,2.3-.72,1.63-.71,2.82-.86,3.59-.27,1.41-1.46,3.29-5.61,5.17-11.26,6.52-22.52,13.03-33.78,19.55-1.79,1.3-3.35,1.73-4.46,1.87-1.74.23-3.68-.08-5.4-.35-1.87-.3-2.68-.58-3.87-.21-1.06.33-1.71.96-2.32,1.55-2.3,2.24-2.85,5.06-3.17,6.75-.26,1.43-.62,3.36,0,3.66.5.24,1.69-.58,4.5-4.5,1.96-1.24,4.55-.87,6.05.84,1.44,1.64,1.54,4.12.21,5.91-4.23,3.32-4.23,4.22-4.08,4.5.47.89,4.5-.36,6.68-1.27,1.91-.8,2.97-1.25,3.8-2.39,1.15-1.57.61-2.72,1.55-4.78.46-1.02,1.36-2.44,3.31-3.8,12.51-7.51,25.01-15.03,37.52-22.54,1.26-1.07,2.44-1.47,3.15-1.64,1.31-.31,2.4-.16,4.01.06,2.19.3,2.38.65,3.39.65,2.69-.01,4.56-2.34,4.78-2.62.92-1.13,1.19-2.23,1.73-4.41.43-1.76,1.01-4.09.4-4.41-.42-.22-1.52.42-4.75,4.75-2.12.42-4.26-.25-5.55-1.79-1.2-1.43-1.24-3.09-1.23-3.61,1.44-1.53,2.88-3.06,4.32-4.6.38-.54.68-1.15.46-1.54Z"/>
  </g>
</svg>