<?xml version="1.0" encoding="UTF-8"?>
<svg id="Layer_2" data-name="Layer 2" xmlns="http://www.w3.org/2000/svg" viewBox="0 0 38.94 76.38">
  <defs>
    <style>
      .cls-1 {
        fill: #e76f51;
        stroke-width: 0px;
      }
    </style>
  </defs>
  <g id="vliegende_kleren" data-name="vliegende kleren">
    <path class="cls-1" d="M23.68,3.55C20.81,1.17,15.52-1.19,5.08.67c.75,4.69-1.7,8.81-5.08,10.63v65.08c7.44-.17,14.75-.26,21.85-.23-2.5-6.93-5.3-17.13-5.74-29.71-.39-10.87,1.11-20,2.72-26.62,2.3,4.1,4.6,8.19,6.89,12.29,2.01-.46,4.72-1.31,7.63-2.94,2.4-1.34,4.24-2.83,5.59-4.08-2.33-2.98-5.7-7.51-9.4-13.36-2.94-4.65-3.75-6.42-5.85-8.18Z"/>
  </g>
</svg>