<?xml version="1.0" encoding="UTF-8"?>
<svg id="Layer_2" data-name="Layer 2" xmlns="http://www.w3.org/2000/svg" viewBox="0 0 62.15 16.96">
  <defs>
    <style>
      .cls-1 {
        fill: #f4a261;
      }

      .cls-1, .cls-2 {
        stroke: #f4a261;
        stroke-miterlimit: 10;
      }

      .cls-2 {
        fill: none;
      }
    </style>
  </defs>
  <g id="vliegende_kleren" data-name="vliegende kleren">
    <g>
      <path class="cls-1" d="M.5,1.33c2.07,2.37,6.49,6.69,13.17,7.96,4.01.76,7.25.13,11.9-.8,7.86-1.58,9.71-3.56,16.19-4.91,3.12-.65,7.85-1.27,13.97-.63-.29,2.22-.58,4.45-.87,6.67-8.06-.53-14.28.54-18.54,1.65-7.29,1.91-8.41,3.84-15.22,4.72-3.4.44-10.92,1.53-17.54-2.49-.92-.56-1.98-1.31-3.06-2.32V1.33Z"/>
      <path class="cls-2" d="M62.11,3.51c-2.13-.19-4.25-.38-6.38-.57"/>
      <path class="cls-2" d="M61.53,5.49c-2.03-.15-4.05-.3-6.08-.45"/>
      <path class="cls-2" d="M61.17,7.6c-2.02,0-4.03-.02-6.05-.03"/>
      <path class="cls-2" d="M60.54,10.22c-1.89-.2-3.79-.4-5.68-.6"/>
    </g>
  </g>
</svg>