<?xml version="1.0" encoding="UTF-8"?>
<svg id="Layer_2" data-name="Layer 2" xmlns="http://www.w3.org/2000/svg" viewBox="0 0 24.9 21.89">
  <defs>
    <style>
      .cls-1 {
        fill: #264653;
        stroke-width: 0px;
      }
    </style>
  </defs>
  <g id="vliegende_kleren" data-name="vliegende kleren">
    <path class="cls-1" d="M0,1.14c.04,1.34.07,2.68.11,4.02,8.01.34,13.7,3.04,13.83,5.47.13,2.46-5.39,5.85-13.72,6.92.41,1.45.82,2.9,1.23,4.35,2.33-.66,4.65-1.31,6.98-1.97,1.55.82,3.83,1.72,6.54,1.59,3.13-.14,4.65-1.55,7.02-2.23.97-.28,1.93-.38,2.91-.34V1.54c-.98.14-1.98.14-3.03-.07C20.3,1.17,19.08.52,17.78,0h-7.32c-1.32.54-2.41,1.28-3.21,1.92-2.42-.26-4.83-.52-7.25-.78Z"/>
  </g>
</svg>