<?xml version="1.0" encoding="UTF-8"?>
<svg id="Layer_2" data-name="Layer 2" xmlns="http://www.w3.org/2000/svg" viewBox="0 0 337.91 64.39">
  <defs>
    <style>
      .cls-1 {
        fill: #f4a261;
      }

      .cls-1, .cls-2 {
        stroke: #f4a261;
        stroke-miterlimit: 10;
      }

      .cls-2 {
        fill: none;
      }

      .cls-3 {
        fill: #2a9d8f;
      }

      .cls-3, .cls-4, .cls-5, .cls-6, .cls-7 {
        stroke-width: 0px;
      }

      .cls-4 {
        fill: #264653;
      }

      .cls-5 {
        fill: #fff;
      }

      .cls-6 {
        fill: #e9c46a;
      }

      .cls-7 {
        fill: #e76f51;
      }
    </style>
  </defs>
  <g id="vliegende_kleren" data-name="vliegende kleren">
    <g>
      <path class="cls-4" d="M239.54,19.07s.29,0,.57.08c1.35.42,2.63,2.77,8.76,12.7.59.95,1.51,2.5,1.21,4.32-.38,2.28-2.44,3.65-3.8,4.49-6.18,3.8-11.62,4.97-18.14,7.6-3.1,1.25-1.9,1-12.26,5.7-3.87,1.76-6.04,2.7-8.98,3.63-3.74,1.18-6.94,1.76-9.15,2.07-.28-.98-.75-2.26-1.55-3.63-.75-1.27-1.57-2.24-2.25-2.94.88-.59,2.23-1.39,3.97-2.07,2.83-1.1,5.08-1.25,6.22-1.38,4.84-.55,5.03-2.53,13.77-5.97,5.64-2.22,6.88-1.92,10.06-4.04,2.71-1.82,4.56-3.88,5.7-5.35-6.17,3.04-11.46,4.09-15.03,4.49-4.04.46-7.32.24-13.64-.17-5-.33-9.15-.81-12.09-1.21-.51-1-1.19-2.66-1.38-4.84-.16-1.81.1-3.32.35-4.32,1.49-.37,3.8-.76,6.56-.52,2.54.22,2.94.76,6.22,1.38,1.56.3,5.15.95,9.33.52,2.61-.27,4.46-.87,6.56-1.55,8.1-2.65,15.87-7.49,15.87-7.49.6-.61,1.72-1.55,3.13-1.49Z"/>
      <g>
        <path class="cls-1" d="M4.82,18.79c1.76-1.34,3.53-2.68,5.29-4.01,1.73,1.99,4.13,5.1,6.2,9.3,3.26,6.62,2.65,9.7,6.02,13.5,2.3,2.6,5,3.68,10.4,5.84,7.44,2.97,10.08,2.34,16.24,4.74,2.97,1.16,7.26,3.23,12.04,7.12-1.46,1.7-2.92,3.41-4.38,5.11-6.46-4.86-12.25-7.36-16.42-8.76-7.15-2.39-9.14-1.39-15.33-4.38-4.02-1.94-10.63-5.14-13.32-11.68-1.08-2.63-.7-3.8-2.37-8.21-1.43-3.78-3.14-6.69-4.38-8.58Z"/>
        <path class="cls-2" d="M.3,15.32c1.5,1.16,3.01,2.31,4.51,3.47"/>
        <path class="cls-2" d="M2.37,12.86c1.43,1.5,2.87,3.01,4.3,4.51"/>
        <path class="cls-2" d="M4.31,11.18c1.41,1.59,2.81,3.19,4.22,4.78"/>
        <path class="cls-2" d="M6.38,9.95c1.24,1.61,2.48,3.21,3.72,4.82"/>
        <path class="cls-2" d="M66.04,59.24c-1.68-1.32-3.35-2.64-5.03-3.97"/>
        <path class="cls-2" d="M64.47,60.59c-1.61-1.23-3.23-2.47-4.84-3.7"/>
        <path class="cls-2" d="M63.02,62.15c-1.68-1.11-3.36-2.22-5.05-3.33"/>
        <path class="cls-2" d="M61.06,64c-1.48-1.21-2.95-2.41-4.43-3.62"/>
      </g>
      <path class="cls-6" d="M153.85,2.82l-4.8-2.82c-2.4,3.95-4.8,7.9-7.19,11.85-2.62,2.8-6.32,5.71-11.14,6.49-3.35.54-5.26-.26-11-.85h0c-1.62-.08-8.58-.37-17.91,1.27-4.31.76-9.83,2.05-16.08,4.37,1.93,3.95,4.06,9.22,5.5,15.66,1.54,6.88,1.82,12.91,1.69,17.49,1.11-1.49,2.81-3.55,5.22-5.64,4.19-3.65,8.64-5.76,15.94-8.18,14.42-4.79,13.86-2.13,20.45-5.5,7.04-3.6,8.34-6.96,16.93-10.58,3.89-1.64,7.29-2.49,9.59-2.96-.42-2.02-.85-4.04-1.27-6.06-2.77.75-5.55,1.5-8.32,2.26-.89-3.24-1.79-6.49-2.68-9.73.25-.95.75-2.38,1.81-3.88,1.14-1.62,2.43-2.62,3.27-3.17Z"/>
      <path class="cls-7" d="M317.92,20.62c-1.47.68-3.71,1.8-6.26,3.51-3.51,2.35-4.62,3.81-7.48,5.65-1.78,1.15-4.52,2.62-8.39,3.66,2.47,2.88,4.97,5.88,7.48,9,2.62,3.25,5.11,6.46,7.48,9.61,1.85-2.85,4.82-6.71,9.31-10.38,3.88-3.17,7.65-5.16,10.53-6.41-.86,1.98-1.73,3.97-2.59,5.95.73.61,1.79,1.37,3.2,1.98,1.16.51,2.22.77,3.05.92.45-1.68,1.17-4.18,2.29-7.17.89-2.37,1.32-3.16,1.37-4.43.08-1.72-.53-4.32-4.12-7.63-2.03,2.13-5.31,1.84-6.71,0-1.19-1.55-.99-4.14.76-5.8-1.06-.61-3.06-1.95-4.58-4.43-1.05-1.72-1.49-3.35-1.68-4.43-2.29,1.22-4.58,2.44-6.87,3.66.24,1.05.66,2.38,1.37,3.81.59,1.19,1.25,2.15,1.83,2.9Z"/>
      <g>
        <path class="cls-5" d="M173.65,37.05c-.32,1.47-.63,2.93-.95,4.4.03.57.04,2.23-1.06,3.87-.76,1.12-1.85,1.63-4.02,2.65,0,0-1.73.82-6.11,1.6-.13.02-.42.07-.78-.02-.74-.2-1.3-.93-1.46-1.58-.28-1.19.73-2.3.99-2.58,1.85-2.01,4-.8,6.44-2.88,1.16-.98,1.63-2.07,1.74-2.35.55-1.33.47-2.55.38-3.18,1.6.02,3.21.05,4.81.07Z"/>
        <path class="cls-3" d="M171.95,44.81c-.9-.64-2.12-.57-2.89.15-.69.64-.9,1.67-.51,2.57.14-.07,1.06-.5,1.68-.89.23-.15.44-.3.46-.31.19-.14.34-.25.51-.43.17-.18.28-.33.38-.47.11-.15.24-.36.38-.62Z"/>
        <path class="cls-3" d="M159.43,48.41c-.25-.53-.19-1.04-.17-1.21.07-.49.28-.82.46-1.12.2-.33.43-.57.55-.69.16-.17.32-.31.43-.41.72,1.44,1.43,2.89,2.15,4.33-.32.05-.57.1-.75.14-.41.09-.65.16-1,.15-.15,0-.27-.03-.36-.05-.22-.06-.38-.15-.47-.2-.24-.14-.39-.3-.47-.39-.08-.08-.25-.27-.38-.54Z"/>
        <path class="cls-3" d="M168.2,40.7c1.54.04,3.08.07,4.63.11.28-1.25.55-2.51.83-3.76-1.6-.02-3.21-.05-4.81-.07.05.38.08.84.04,1.36-.08,1.04-.42,1.86-.68,2.37Z"/>
      </g>
      <g>
        <path class="cls-5" d="M260.66,25.08c.85-1.23,1.7-2.47,2.56-3.7.19-.53.81-2.08,2.46-3.17,1.13-.75,2.34-.8,4.73-.92,0,0,1.91-.1,6.26.85.13.03.42.09.71.32.61.47.85,1.35.74,2.02-.19,1.21-1.56,1.85-1.89,2.01-2.47,1.15-4-.79-7.05.2-1.44.47-2.29,1.29-2.51,1.51-1.01,1.02-1.41,2.18-1.57,2.8-1.47-.64-2.95-1.27-4.42-1.91Z"/>
        <path class="cls-3" d="M265.2,18.56c.59.94,1.74,1.33,2.73.96.88-.33,1.47-1.2,1.46-2.18-.16,0-1.17.06-1.89.18-.27.05-.52.11-.54.12-.23.06-.41.1-.63.2-.23.1-.39.2-.53.29-.16.1-.36.24-.59.43Z"/>
        <path class="cls-3" d="M278.14,20.01c.03.59-.22,1.03-.31,1.18-.25.43-.57.65-.85.86-.31.22-.61.36-.77.43-.22.1-.41.17-.55.21-.11-1.61-.22-3.22-.33-4.82.31.07.57.12.75.16.42.07.66.1.98.25.14.07.24.13.31.19.18.14.29.29.35.37.16.22.24.43.28.54.04.11.12.34.14.65Z"/>
        <path class="cls-3" d="M267.1,23.79c-1.41-.62-2.82-1.25-4.23-1.87-.73,1.05-1.47,2.11-2.2,3.16,1.47.64,2.95,1.27,4.42,1.91.09-.37.24-.81.48-1.27.47-.93,1.09-1.56,1.54-1.93Z"/>
      </g>
    </g>
  </g>
</svg>