<?xml version="1.0" encoding="UTF-8"?>
<svg id="Layer_2" data-name="Layer 2" xmlns="http://www.w3.org/2000/svg" viewBox="0 0 134.54 157.17">
  <defs>
    <style>
      .cls-1 {
        fill: #2a9d8f;
      }

      .cls-1, .cls-2, .cls-3, .cls-4 {
        stroke-width: 0px;
      }

      .cls-2 {
        fill: #264653;
      }

      .cls-3 {
        fill: #fff;
      }

      .cls-4 {
        fill: #e9c46a;
      }
    </style>
  </defs>
  <g id="vliegende_kleren" data-name="vliegende kleren">
    <g>
      <path class="cls-2" d="M105.89,27.2s.2-.21.46-.35c1.26-.66,3.82.1,15.17,2.79,1.09.26,2.84.7,3.91,2.2,1.35,1.88.86,4.31.49,5.86-1.68,7.05-4.7,11.74-7.45,18.2-1.31,3.07-.64,2.05-4.64,12.7-1.49,3.97-2.36,6.18-3.79,8.92-1.81,3.47-3.66,6.15-5.01,7.94-.89-.5-2.12-1.07-3.66-1.47-1.43-.37-2.69-.48-3.66-.49.21-1.04.59-2.56,1.34-4.27,1.22-2.78,2.71-4.48,3.42-5.37,3.03-3.81,1.76-5.34,5.51-13.96,2.42-5.56,3.51-6.22,4.26-9.98.63-3.2.48-5.97.24-7.82-2.22,6.51-5.21,11-7.45,13.8-2.54,3.18-5.01,5.35-9.77,9.53-3.77,3.31-7.05,5.9-9.4,7.69-1.06-.35-2.73-1.04-4.4-2.44-1.39-1.17-2.28-2.41-2.81-3.3.8-1.32,2.15-3.22,4.27-5.01,1.95-1.64,2.62-1.54,5.37-3.42,1.31-.89,4.32-2.97,6.96-6.23,1.65-2.03,2.54-3.76,3.54-5.74,3.85-7.6,5.92-16.51,5.92-16.51,0-.86.12-2.32,1.16-3.27Z"/>
      <path class="cls-4" d="M33.81,76.29l-5.39,1.4c1.1,4.49,2.19,8.98,3.29,13.46.13,3.83-.43,8.5-3.29,12.47-1.99,2.75-3.9,3.54-8.38,7.18h0c-1.2,1.09-6.33,5.8-11.77,13.56-2.51,3.58-5.5,8.41-8.28,14.46,4.16,1.43,9.39,3.65,14.96,7.18,5.95,3.77,10.42,7.84,13.56,11.17-.27-1.84-.52-4.5-.3-7.68.39-5.54,2.04-10.18,5.49-17.05,6.81-13.59,8.29-11.3,10.57-18.35,2.44-7.52.97-10.82,4.49-19.45,1.59-3.91,3.39-6.92,4.69-8.88-1.73-1.13-3.46-2.26-5.19-3.39-1.43,2.49-2.86,4.99-4.29,7.48-2.93-1.66-5.85-3.32-8.78-4.99-.49-.85-1.15-2.22-1.47-4.02-.34-1.95-.13-3.57.07-4.56Z"/>
      <g>
        <path class="cls-3" d="M72.01,86.5c.81,1.26,1.63,2.52,2.44,3.78.42.38,1.61,1.55,1.98,3.48.26,1.33-.16,2.46-.96,4.72,0,0-.64,1.8-3.18,5.45-.08.11-.25.35-.56.53-.67.38-1.58.26-2.15-.09-1.04-.64-1.11-2.15-1.13-2.52-.12-2.73,2.26-3.4,2.52-6.59.12-1.51-.31-2.61-.43-2.89-.55-1.33-1.47-2.13-1.98-2.52,1.15-1.12,2.3-2.23,3.46-3.35Z"/>
        <path class="cls-1" d="M76.29,93.19c-1.09.18-1.9,1.1-1.94,2.15-.03.94.55,1.82,1.45,2.18.05-.15.4-1.1.56-1.81.06-.27.1-.52.1-.54.03-.23.06-.42.06-.66,0-.25-.03-.43-.06-.6-.03-.18-.08-.43-.17-.7Z"/>
        <path class="cls-1" d="M69.99,104.58c-.55-.2-.87-.6-.97-.74-.3-.39-.39-.78-.46-1.12-.09-.37-.1-.7-.1-.88,0-.24,0-.44.02-.59,1.53.52,3.05,1.03,4.58,1.55-.19.26-.33.48-.43.63-.23.36-.34.57-.6.81-.11.1-.21.17-.29.22-.2.12-.38.16-.47.18-.27.07-.49.06-.61.05-.11,0-.37-.02-.65-.12Z"/>
        <path class="cls-1" d="M70.74,92.94c1.12-1.06,2.23-2.13,3.35-3.19-.69-1.08-1.38-2.17-2.08-3.25-1.15,1.12-2.3,2.23-3.46,3.35.3.23.65.53.99.93.68.8,1.02,1.61,1.19,2.16Z"/>
      </g>
      <g>
        <path class="cls-3" d="M125.08,16.51c-.27-1.48-.54-2.95-.81-4.43-.24-.51-.89-2.05-.5-3.98.27-1.33,1.09-2.21,2.69-3.99,0,0,1.28-1.42,5.02-3.82.11-.07.36-.23.72-.28.76-.1,1.56.36,1.95.9.72.99.2,2.41.08,2.76-.93,2.57-3.39,2.27-4.85,5.13-.69,1.35-.71,2.53-.71,2.84,0,1.44.55,2.54.87,3.09-1.49.59-2.98,1.19-4.47,1.78Z"/>
        <path class="cls-1" d="M123.67,8.69c1.08.25,2.17-.29,2.61-1.25.39-.85.19-1.89-.51-2.57-.11.12-.79.87-1.21,1.46-.16.23-.29.44-.3.47-.12.2-.21.36-.31.59-.09.23-.14.41-.17.58-.04.18-.09.42-.11.72Z"/>
        <path class="cls-1" d="M133.85.57c.44.39.57.89.62,1.05.13.48.06.86,0,1.21-.06.38-.18.69-.24.85-.08.22-.17.41-.24.54-1.21-1.06-2.43-2.12-3.64-3.18.27-.17.49-.31.64-.42.35-.24.54-.4.87-.52.15-.05.26-.08.35-.09.23-.03.41,0,.51.01.28.04.47.13.58.18.1.05.33.16.56.36Z"/>
        <path class="cls-1" d="M128.71,11.04c-1.44.56-2.88,1.11-4.31,1.67.23,1.26.45,2.53.68,3.79,1.49-.59,2.98-1.19,4.47-1.78-.19-.33-.4-.74-.56-1.24-.32-.99-.33-1.87-.28-2.45Z"/>
      </g>
    </g>
  </g>
</svg>