<?xml version="1.0" encoding="UTF-8"?>
<svg id="Layer_2" data-name="Layer 2" xmlns="http://www.w3.org/2000/svg" viewBox="0 0 25.46 31.02">
  <defs>
    <style>
      .cls-1 {
        fill: #2a9d8f;
      }

      .cls-1, .cls-2 {
        stroke-width: 0px;
      }

      .cls-2 {
        fill: #fff;
      }
    </style>
  </defs>
  <g id="vliegende_kleren" data-name="vliegende kleren">
    <g>
      <path class="cls-2" d="M25.09,0c-.02,3.13-.05,6.26-.07,9.39.3,1.14,1.03,4.54-.53,8.35-1.07,2.62-3.1,4.11-7.08,7.12,0,0-3.18,2.41-11.79,5.87-.26.1-.84.33-1.59.29-1.6-.09-3.05-1.35-3.65-2.62-1.09-2.32.52-5.02.92-5.68,2.92-4.89,7.83-3.34,11.94-8.62,1.94-2.5,2.45-4.92,2.56-5.54.55-2.95-.13-5.41-.58-6.66,3.29-.63,6.58-1.26,9.86-1.89Z"/>
      <path class="cls-1" d="M24.9,16.57c-2.11-.93-4.57-.26-5.84,1.53-1.13,1.59-1.12,3.8.04,5.47.27-.2,1.96-1.47,3.05-2.53.41-.4.76-.8.8-.84.32-.37.58-.66.86-1.09.28-.44.44-.79.59-1.12.16-.36.35-.84.51-1.42Z"/>
      <path class="cls-1" d="M.86,29.24C.12,28.27.04,27.2.01,26.84c-.07-1.03.21-1.8.47-2.48.28-.75.63-1.34.82-1.65.26-.43.51-.77.71-1.02,2.07,2.65,4.15,5.3,6.22,7.94-.62.24-1.13.45-1.47.61-.8.36-1.25.61-1.98.72-.32.05-.56.05-.76.04-.48-.03-.84-.15-1.04-.22-.55-.2-.92-.46-1.12-.6-.19-.14-.62-.45-1-.95Z"/>
      <path class="cls-1" d="M15.5,9.78c3.17-.58,6.33-1.16,9.5-1.74.03-2.68.06-5.36.09-8.04-3.29.63-6.58,1.26-9.86,1.89.27.75.52,1.67.66,2.75.27,2.16-.06,3.97-.39,5.13Z"/>
    </g>
  </g>
</svg>