<?xml version="1.0" encoding="UTF-8"?>
<svg id="Layer_2" data-name="Layer 2" xmlns="http://www.w3.org/2000/svg" viewBox="0 0 345.75 206.9">
  <defs>
    <style>
      .cls-1 {
        stroke-linecap: round;
        stroke-linejoin: round;
      }

      .cls-1, .cls-2 {
        fill: none;
        stroke: #264653;
        stroke-width: 1.8px;
      }

      .cls-2 {
        stroke-miterlimit: 10;
      }

      .cls-3 {
        fill: #2a9d8f;
      }

      .cls-3, .cls-4 {
        stroke-width: 0px;
      }

      .cls-4 {
        fill: #264653;
      }
    </style>
  </defs>
  <g id="mens_op_fiets" data-name="mens op fiets">
    <g>
      <g>
        <g>
          <circle class="cls-4" cx="29.05" cy="5.85" r="5.16"/>
          <path class="cls-4" d="M25.38,14.9c.11-.21,1.15-2.07,3.29-2.37,1.82-.25,3.68.74,4.61,2.5,0,0-.02,1.34-.02,1.35-.04,2.28-.33,19.67-.37,21.94-.45,1.48-1.61,2.61-3.03,2.9-1.85.37-3.85-.76-4.61-2.76.04-7.85.09-15.71.13-23.56Z"/>
          <path class="cls-4" d="M33.28,15.03c1.95,2.67,3.89,5.34,5.84,8.01,3.67.07,7.33.15,11,.22,1.17.46,1.98,1.52,2.07,2.72.12,1.51-.96,2.5-1.09,2.61-4.72.07-9.44.15-14.16.22-1.27-1.52-2.55-3.04-3.82-4.56.05-3.07.1-6.14.16-9.21Z"/>
          <path class="cls-4" d="M32.88,38.33c1.28,3.19,2.55,6.39,3.83,9.58.49,1.75.94,3.69,1.28,5.8.66,4.1.77,7.79.63,10.89.08,1.48-.91,2.73-2.14,2.96-1.46.27-3.08-.94-3.18-2.73.28-3.02.37-8.1-1.48-13.97-1.63-5.17-4.11-8.93-5.9-11.2,2.32-.44,4.64-.88,6.96-1.32Z"/>
          <path class="cls-4" d="M25.25,38.46c.08,3.31-.17,7.99-1.69,13.33-1.28,4.48-3.07,8.05-4.61,10.62-1.16,1.55-.66,3.74.85,4.61,1.52.88,3.67.21,4.43-1.58,1.67-2.96,3.54-7.02,4.79-12.08.82-3.33,1.19-6.36,1.33-8.92-1.7-2-3.4-3.99-5.1-5.99Z"/>
        </g>
        <g id="fiets_icon">
          <path class="cls-2" d="M29.04,53.03c-.29,7.33-6.45,13.3-13.79,13.43-7.59.14-14.15-5.97-14.34-13.65-.19-7.83,6.33-14.41,14.19-14.34,7.89.07,14.24,6.81,13.94,14.55Z"/>
          <path class="cls-2" d="M74.26,53.03c-.29,7.33-6.45,13.3-13.79,13.43-7.59.14-14.15-5.97-14.34-13.65-.19-7.83,6.33-14.41,14.19-14.34,7.89.07,14.24,6.81,13.94,14.55Z"/>
          <circle class="cls-2" cx="37.59" cy="52.48" r="3.32"/>
          <path class="cls-1" d="M33.34,52.48H14.97c3.76-6.52,7.53-13.04,11.29-19.57,3.29,5.53,6.58,11.06,9.87,16.58"/>
          <polyline class="cls-1" points="16.37 27.11 23.47 27.11 30.07 27.11"/>
          <line class="cls-1" x1="26.26" y1="32.91" x2="23.29" y2="27.11"/>
          <path class="cls-1" d="M54.49,22.43c-2.91-1.48-6.18-.62-7.5,1.53-1.33,2.15-.17,4.73-.06,4.96,4.43,7.85,8.85,15.71,13.28,23.56"/>
          <path class="cls-1" d="M39.32,49.64c3.24-5.65,6.49-11.3,9.73-16.96"/>
        </g>
      </g>
      <g>
        <g>
          <circle class="cls-4" cx="211.01" cy="5.16" r="5.16"/>
          <path class="cls-4" d="M207.34,14.21c.11-.21,1.15-2.07,3.29-2.37,1.82-.25,3.68.74,4.61,2.5,0,0-.02,1.34-.02,1.35-.04,2.28-.33,19.67-.37,21.94-.45,1.48-1.61,2.61-3.03,2.9-1.85.37-3.85-.76-4.61-2.76.04-7.85.09-15.71.13-23.56Z"/>
          <path class="cls-4" d="M215.24,14.34c1.95,2.67,3.89,5.34,5.84,8.01,3.67.07,7.33.15,11,.22,1.17.46,1.98,1.52,2.07,2.72.12,1.51-.96,2.5-1.09,2.61-4.72.07-9.44.15-14.16.22-1.27-1.52-2.55-3.04-3.82-4.56.05-3.07.1-6.14.16-9.21Z"/>
          <path class="cls-4" d="M214.84,37.64c1.28,3.19,2.55,6.39,3.83,9.58.49,1.75.94,3.69,1.28,5.8.66,4.1.77,7.79.63,10.89.08,1.48-.91,2.73-2.14,2.96-1.46.27-3.08-.94-3.18-2.73.28-3.02.37-8.1-1.48-13.97-1.63-5.17-4.11-8.93-5.9-11.2,2.32-.44,4.64-.88,6.96-1.32Z"/>
          <path class="cls-4" d="M207.21,37.77c.08,3.31-.17,7.99-1.69,13.33-1.28,4.48-3.07,8.05-4.61,10.62-1.16,1.55-.66,3.74.85,4.61,1.52.88,3.67.21,4.43-1.58,1.67-2.96,3.54-7.02,4.79-12.08.82-3.33,1.19-6.36,1.33-8.92-1.7-2-3.4-3.99-5.1-5.99Z"/>
        </g>
        <g id="fiets_icon-2" data-name="fiets_icon">
          <path class="cls-2" d="M211,52.35c-.29,7.33-6.45,13.3-13.79,13.43-7.59.14-14.15-5.97-14.34-13.65-.19-7.83,6.33-14.41,14.19-14.34,7.89.07,14.24,6.81,13.94,14.55Z"/>
          <path class="cls-2" d="M256.22,52.35c-.29,7.33-6.45,13.3-13.79,13.43-7.59.14-14.15-5.97-14.34-13.65-.19-7.83,6.33-14.41,14.19-14.34,7.89.07,14.24,6.81,13.94,14.55Z"/>
          <circle class="cls-2" cx="219.55" cy="51.79" r="3.32"/>
          <path class="cls-1" d="M215.3,51.79h-18.37c3.76-6.52,7.53-13.04,11.29-19.57,3.29,5.53,6.58,11.06,9.87,16.58"/>
          <polyline class="cls-1" points="198.33 26.42 205.43 26.42 212.03 26.42"/>
          <line class="cls-1" x1="208.22" y1="32.23" x2="205.25" y2="26.42"/>
          <path class="cls-1" d="M236.45,21.75c-2.91-1.48-6.18-.62-7.5,1.53-1.33,2.15-.17,4.73-.06,4.96,4.43,7.85,8.85,15.71,13.28,23.56"/>
          <path class="cls-1" d="M221.28,48.96c3.24-5.65,6.49-11.3,9.73-16.96"/>
        </g>
      </g>
      <g>
        <g id="fiets_icon-3" data-name="fiets_icon">
          <path class="cls-2" d="M120.57,53.5c-.27,6.86-6.03,12.44-12.9,12.57-7.1.13-13.24-5.59-13.42-12.77-.18-7.33,5.93-13.48,13.28-13.41,7.38.06,13.33,6.37,13.04,13.61Z"/>
          <path class="cls-2" d="M162.88,53.5c-.27,6.86-6.03,12.44-12.9,12.57-7.1.13-13.24-5.59-13.42-12.77-.18-7.33,5.93-13.48,13.28-13.41,7.38.06,13.33,6.37,13.04,13.61Z"/>
          <circle class="cls-2" cx="128.57" cy="52.98" r="3.11"/>
          <path class="cls-2" d="M124.6,52.98h-17.19c3.52-6.1,7.04-12.2,10.56-18.3,3.08,5.17,6.16,10.34,9.24,15.52"/>
          <polyline class="cls-2" points="108.72 29.24 115.36 29.24 121.54 29.24"/>
          <line class="cls-2" x1="117.97" y1="34.67" x2="115.19" y2="29.24"/>
          <path class="cls-2" d="M144.38,24.87c-2.72-1.39-5.78-.58-7.02,1.43-1.24,2.01-.16,4.43-.06,4.64,4.14,7.35,8.28,14.7,12.42,22.04"/>
          <path class="cls-2" d="M130.19,50.32c3.03-5.29,6.07-10.58,9.1-15.86"/>
        </g>
        <g>
          <circle class="cls-4" cx="126.44" cy="5.03" r="4.83"/>
          <path class="cls-4" d="M121.04,9.92c.17-.06,1.75-.61,3.51.36,1.5.83,2.51,2.42,2.48,3.96,0,0-.15.2-.29.4-.02.02-.27.37-.29.4,0,.01-9.21,12.52-9.45,12.85-.23.11-1.87.91-3.53.09-1.57-.77-2.63-2.52-2.37-4.12,3.31-4.65,6.63-9.29,9.94-13.94Z"/>
          <path class="cls-4" d="M126.14,13.06c1.56,2.54,3.13,5.09,4.69,7.63,3.13.21,6.27.42,9.4.63,1.18.32,1.97,1.43,1.89,2.61-.07,1.1-.88,2.04-1.98,2.29l-11.79-1.17c-1.56-2.09-3.12-4.18-4.67-6.26.82-1.91,1.64-3.82,2.46-5.73Z"/>
          <path class="cls-4" d="M118.8,25.43c3.03,3,6.07,6.01,9.1,9.01.45,4.86.89,9.72,1.34,14.57-.17,1.02-.92,1.83-1.85,2.01-1.14.22-2.37-.54-2.73-1.8-.39-4.24-.79-8.48-1.18-12.72-3.49-2.93-6.98-5.86-10.46-8.8,1.93-.76,3.86-1.52,5.79-2.28Z"/>
        </g>
      </g>
      <g>
        <g id="fiets_icon-4" data-name="fiets_icon">
          <path class="cls-2" d="M302.53,55.04c-.27,6.86-6.03,12.44-12.9,12.57-7.1.13-13.24-5.59-13.42-12.77-.18-7.33,5.93-13.48,13.28-13.41,7.38.06,13.33,6.37,13.04,13.61Z"/>
          <path class="cls-2" d="M344.84,55.04c-.27,6.86-6.03,12.44-12.9,12.57-7.1.13-13.24-5.59-13.42-12.77-.18-7.33,5.93-13.48,13.28-13.41,7.38.06,13.33,6.37,13.04,13.61Z"/>
          <circle class="cls-2" cx="310.53" cy="54.52" r="3.11"/>
          <path class="cls-2" d="M306.56,54.52h-17.19c3.52-6.1,7.04-12.2,10.56-18.3,3.08,5.17,6.16,10.34,9.24,15.52"/>
          <polyline class="cls-2" points="290.68 30.78 297.32 30.78 303.5 30.78"/>
          <line class="cls-2" x1="299.93" y1="36.21" x2="297.15" y2="30.78"/>
          <path class="cls-2" d="M326.34,26.41c-2.72-1.39-5.78-.58-7.02,1.43-1.24,2.01-.16,4.43-.06,4.64,4.14,7.35,8.28,14.7,12.42,22.04"/>
          <path class="cls-2" d="M312.15,51.86c3.03-5.29,6.07-10.58,9.1-15.86"/>
        </g>
        <g>
          <circle class="cls-4" cx="308.4" cy="6.57" r="4.83"/>
          <path class="cls-4" d="M303,11.45c.17-.06,1.75-.61,3.51.36,1.5.83,2.51,2.42,2.48,3.96,0,0-.15.2-.29.4-.02.02-.27.37-.29.4,0,.01-9.21,12.52-9.45,12.85-.23.11-1.87.91-3.53.09-1.57-.77-2.63-2.52-2.37-4.12,3.31-4.65,6.63-9.29,9.94-13.94Z"/>
          <path class="cls-4" d="M308.1,14.6c1.56,2.54,3.13,5.09,4.69,7.63,3.13.21,6.27.42,9.4.63,1.18.32,1.97,1.43,1.89,2.61-.07,1.1-.88,2.04-1.98,2.29l-11.79-1.17c-1.56-2.09-3.12-4.18-4.67-6.26.82-1.91,1.64-3.82,2.46-5.73Z"/>
          <path class="cls-4" d="M300.76,26.97c3.03,3,6.07,6.01,9.1,9.01.45,4.86.89,9.72,1.34,14.57-.17,1.02-.92,1.83-1.85,2.01-1.14.22-2.37-.54-2.73-1.8-.39-4.24-.79-8.48-1.18-12.72-3.49-2.93-6.98-5.86-10.46-8.8,1.93-.76,3.86-1.52,5.79-2.28Z"/>
        </g>
      </g>
    </g>
  </g>
  <g id="vliegende_kleren" data-name="vliegende kleren">
    <path class="cls-3" d="M275.87,203.7c-1.41-.62-2.82-1.25-4.23-1.87-.73,1.05-1.47,2.11-2.2,3.16,1.47.64,2.95,1.27,4.42,1.91.09-.37.24-.81.48-1.27.47-.93,1.09-1.56,1.54-1.93Z"/>
  </g>
</svg>