<?xml version="1.0" encoding="UTF-8"?>
<svg id="Layer_2" data-name="Layer 2" xmlns="http://www.w3.org/2000/svg" viewBox="0 0 170.91 87.77">
  <defs>
    <style>
      .cls-1 {
        stroke-width: 15px;
      }

      .cls-1, .cls-2 {
        fill: none;
        stroke: #264653;
        stroke-miterlimit: 10;
      }
    </style>
  </defs>
  <g id="repair">
    <g>
      <path class="cls-1" d="M86,80.27C42.65,80.27,7.5,45.12,7.5,1.77"/>
      <path class="cls-2" d="M27.67,47.17C45.98,31.61,64.28,16.06,82.58.5"/>
      <path class="cls-2" d="M40.17,60.05C54.31,40.2,68.45,20.35,82.58.5"/>
      <path class="cls-2" d="M9.11,2.84c24.49-.78,48.98-1.56,73.48-2.34"/>
      <path class="cls-2" d="M12.52,18C35.87,12.16,59.23,6.33,82.58.5"/>
      <path class="cls-2" d="M17.44,33.53C39.16,22.52,60.87,11.51,82.58.5"/>
      <path class="cls-2" d="M57.28,71.29C65.71,47.69,74.15,24.09,82.58.5"/>
      <path class="cls-2" d="M72.86,73.36c3.24-24.29,6.48-48.57,9.72-72.86"/>
      <g>
        <path class="cls-1" d="M163.41,1.77c0,43.35-35.15,78.5-78.5,78.5"/>
        <path class="cls-2" d="M130.31,60.1C114.4,40.23,98.49,20.37,82.58.5"/>
        <path class="cls-2" d="M143.19,47.6C122.99,31.9,102.79,16.2,82.58.5"/>
        <path class="cls-2" d="M85.99,78.66c-1.13-26.05-2.27-52.11-3.4-78.16"/>
        <path class="cls-2" d="M101.14,75.25c-6.19-24.92-12.37-49.83-18.56-74.75"/>
        <path class="cls-2" d="M116.67,70.33C105.31,47.05,93.95,23.78,82.58.5"/>
        <path class="cls-2" d="M154.43,30.49C130.48,20.5,106.53,10.5,82.58.5"/>
        <path class="cls-2" d="M156.5,14.9C131.86,10.1,107.22,5.3,82.58.5"/>
      </g>
      <path class="cls-2" d="M157.15,1.97c-24.85-.49-49.71-.98-74.56-1.47"/>
    </g>
  </g>
</svg>