<?xml version="1.0" encoding="UTF-8"?>
<svg id="Layer_2" data-name="Layer 2" xmlns="http://www.w3.org/2000/svg" viewBox="0 0 87.77 170.91">
  <defs>
    <style>
      .cls-1 {
        stroke-width: 15px;
      }

      .cls-1, .cls-2 {
        fill: none;
        stroke: #264653;
        stroke-miterlimit: 10;
      }
    </style>
  </defs>
  <g id="fiets">
    <g>
      <path class="cls-1" d="M80.27,84.91c0,43.35-35.15,78.5-78.5,78.5"/>
      <path class="cls-2" d="M47.17,143.24C31.61,124.94,16.06,106.63.5,88.33"/>
      <path class="cls-2" d="M60.05,130.74C40.2,116.6,20.35,102.46.5,88.33"/>
      <path class="cls-2" d="M2.84,161.8c-.78-24.49-1.56-48.98-2.34-73.48"/>
      <path class="cls-2" d="M18,158.39C12.16,135.04,6.33,111.68.5,88.33"/>
      <path class="cls-2" d="M33.53,153.47C22.52,131.76,11.51,110.04.5,88.33"/>
      <path class="cls-2" d="M71.29,113.64C47.69,105.2,24.09,96.76.5,88.33"/>
      <path class="cls-2" d="M73.36,98.05c-24.29-3.24-48.57-6.48-72.86-9.72"/>
      <g>
        <path class="cls-1" d="M1.77,7.5c43.35,0,78.5,35.15,78.5,78.5"/>
        <path class="cls-2" d="M60.1,40.6C40.23,56.51,20.37,72.42.5,88.33"/>
        <path class="cls-2" d="M47.6,27.72C31.9,47.92,16.2,68.13.5,88.33"/>
        <path class="cls-2" d="M78.66,84.92c-26.05,1.13-52.11,2.27-78.16,3.4"/>
        <path class="cls-2" d="M75.25,69.77c-24.92,6.19-49.83,12.37-74.75,18.56"/>
        <path class="cls-2" d="M70.33,54.24C47.05,65.6,23.78,76.96.5,88.33"/>
        <path class="cls-2" d="M30.49,16.48C20.5,40.43,10.5,64.38.5,88.33"/>
        <path class="cls-2" d="M14.9,14.41C10.1,39.05,5.3,63.69.5,88.33"/>
      </g>
      <path class="cls-2" d="M1.97,13.76c-.49,24.85-.98,49.71-1.47,74.56"/>
    </g>
  </g>
</svg>