<?xml version="1.0" encoding="UTF-8"?>
<svg id="Layer_2" data-name="Layer 2" xmlns="http://www.w3.org/2000/svg" viewBox="0 0 86 87.77">
  <defs>
    <style>
      .cls-1 {
        stroke-width: 15px;
      }

      .cls-1, .cls-2 {
        fill: none;
        stroke: #264653;
        stroke-miterlimit: 10;
      }
    </style>
  </defs>
  <g id="repair">
    <g>
      <path class="cls-1" d="M86,80.27C42.65,80.27,7.5,45.12,7.5,1.77"/>
      <path class="cls-2" d="M27.67,47.17C45.98,31.61,64.28,16.06,82.58.5"/>
      <path class="cls-2" d="M40.17,60.05C54.31,40.2,68.45,20.35,82.58.5"/>
      <path class="cls-2" d="M9.11,2.84c24.49-.78,48.98-1.56,73.48-2.34"/>
      <path class="cls-2" d="M12.52,18C35.87,12.16,59.23,6.33,82.58.5"/>
      <path class="cls-2" d="M17.44,33.53C39.16,22.52,60.87,11.51,82.58.5"/>
      <path class="cls-2" d="M57.28,71.28c7.94-23.69,15.88-47.38,23.83-71.07"/>
      <path class="cls-2" d="M72.86,73.36c2.75-24.38,5.49-48.76,8.24-73.14"/>
    </g>
  </g>
</svg>