<?xml version="1.0" encoding="UTF-8"?>
<svg id="Layer_2" data-name="Layer 2" xmlns="http://www.w3.org/2000/svg" viewBox="0 0 41.24 40.14">
  <defs>
    <style>
      .cls-1 {
        fill: #264653;
        stroke-width: 0px;
      }
    </style>
  </defs>
  <g id="repairen">
    <path class="cls-1" d="M41.24,0l-5.89,3.41c-3.24,2.35-6.06,3.12-8.05,3.38-3.15.41-6.65-.14-9.76-.64-3.39-.53-4.84-1.06-6.99-.38-1.91.6-3.1,1.73-4.2,2.8C2.19,12.61,1.18,17.71.62,20.77c-.47,2.58-1.12,6.08,0,6.61.91.43,3.05-1.04,8.14-8.14,3.55-2.24,8.22-1.57,10.93,1.53,2.6,2.97,2.78,7.45.38,10.68-7.64,5.99-7.65,7.62-7.37,8.14.85,1.6,8.13-.64,12.08-2.29,3.45-1.44,5.36-2.26,6.87-4.32,2.07-2.84,1.1-4.91,2.8-8.65.84-1.85,2.47-4.4,5.98-6.87.27-.16.55-.33.82-.49V0Z"/>
  </g>
</svg>