<?xml version="1.0" encoding="UTF-8"?>
<svg id="Layer_2" data-name="Layer 2" xmlns="http://www.w3.org/2000/svg" viewBox="0 0 300.58 46.61">
  <defs>
    <style>
      .cls-1 {
        stroke: #224653;
      }

      .cls-1, .cls-2 {
        fill: none;
        stroke-linecap: round;
        stroke-miterlimit: 10;
        stroke-width: 2.5px;
      }

      .cls-2 {
        stroke: #244653;
      }

      .cls-3 {
        fill: #224653;
      }

      .cls-3, .cls-4 {
        stroke-width: 0px;
      }

      .cls-4 {
        fill: #244653;
      }
    </style>
  </defs>
  <g id="muziek">
    <g>
      <g>
        <g>
          <path class="cls-3" d="M50.3,38.81c1.75,2.29,5.58,2.3,8.55.03,2.97-2.28,3.96-5.98,2.2-8.26-1.75-2.29-5.58-2.3-8.55-.03-2.97,2.28-3.96,5.98-2.2,8.26Z"/>
          <path class="cls-1" d="M86.1,29.11c0-9.27,0-18.54-.01-27.81,0-.03-.03-.05-.05-.04-8.47,1.7-16.93,3.4-25.4,5.1-.02,0-.04.02-.04.04.03,8.91.05,17.83.08,26.74"/>
        </g>
        <path class="cls-3" d="M75.72,34.78c1.75,2.29,5.58,2.3,8.55.03,2.97-2.28,3.96-5.98,2.2-8.26-1.75-2.29-5.58-2.3-8.55-.03-2.97,2.28-3.96,5.98-2.2,8.26Z"/>
        <rect class="cls-3" x="60.41" y="4.27" width="25.41" height="5.87" transform="translate(0 14.46) rotate(-11.3)"/>
      </g>
      <g>
        <path class="cls-4" d="M119.49,44.88c1.75,2.29,5.58,2.3,8.55.03,2.97-2.28,3.96-5.98,2.2-8.26-1.75-2.29-5.58-2.3-8.55-.03-2.97,2.28-3.96,5.98-2.2,8.26Z"/>
        <path class="cls-2" d="M129.86,9.97v29.24"/>
      </g>
      <g>
        <g>
          <path class="cls-3" d="M.87,42.2c1.75,2.29,5.58,2.3,8.55.03,2.97-2.28,3.96-5.98,2.2-8.26-1.75-2.29-5.58-2.3-8.55-.03-2.97,2.28-3.96,5.98-2.2,8.26Z"/>
          <path class="cls-1" d="M11.2,5.25c.02,10.43.03,20.86.05,31.28"/>
        </g>
        <path class="cls-3" d="M12.44,5.26c-.02.67.08,1.38.44,2.03.28.51.82,1.15,4.22,2.76,1.68.8,1.8.72,2.59,1.23.59.38,1.77,1.17,2.71,2.63,1.05,1.64,1.23,3.23,1.33,4.17.15,1.39.04,2.88,0,3.41-.04.5-.1,1.11-.11,1.15-.09.86-.2,1.57-.28,2.09-.12.25-.34.43-.57.44-.34.01-.71-.34-.7-.83.04-.62.03-1.51-.19-2.55-.22-1.03-.51-2.45-1.61-3.6-1.29-1.35-3.13-1.75-4.08-1.96-.54-.12-1.04-.18-1.89-.45-.91-.3-1.62-.65-2.09-.91.08-3.2.15-6.4.23-9.6Z"/>
      </g>
      <g>
        <g>
          <path class="cls-3" d="M219.76,38.81c1.75,2.29,5.58,2.3,8.55.03,2.97-2.28,3.96-5.98,2.2-8.26-1.75-2.29-5.58-2.3-8.55-.03-2.97,2.28-3.96,5.98-2.2,8.26Z"/>
          <path class="cls-1" d="M255.55,29.11c0-9.27,0-18.54-.01-27.81,0-.03-.03-.05-.05-.04-8.47,1.7-16.93,3.4-25.4,5.1-.02,0-.04.02-.04.04.03,8.91.05,17.83.08,26.74"/>
        </g>
        <path class="cls-3" d="M245.17,34.78c1.75,2.29,5.58,2.3,8.55.03,2.97-2.28,3.96-5.98,2.2-8.26-1.75-2.29-5.58-2.3-8.55-.03-2.97,2.28-3.96,5.98-2.2,8.26Z"/>
        <rect class="cls-3" x="229.86" y="4.27" width="25.41" height="5.87" transform="translate(3.29 47.67) rotate(-11.3)"/>
      </g>
      <g>
        <path class="cls-4" d="M288.95,44.88c1.75,2.29,5.58,2.3,8.55.03,2.97-2.28,3.96-5.98,2.2-8.26-1.75-2.29-5.58-2.3-8.55-.03-2.97,2.28-3.96,5.98-2.2,8.26Z"/>
        <path class="cls-2" d="M299.31,9.97v29.24"/>
      </g>
      <g>
        <g>
          <path class="cls-3" d="M170.32,42.2c1.75,2.29,5.58,2.3,8.55.03,2.97-2.28,3.96-5.98,2.2-8.26-1.75-2.29-5.58-2.3-8.55-.03-2.97,2.28-3.96,5.98-2.2,8.26Z"/>
          <path class="cls-1" d="M180.66,5.25c.02,10.43.03,20.86.05,31.28"/>
        </g>
        <path class="cls-3" d="M181.89,5.26c-.02.67.08,1.38.44,2.03.28.51.82,1.15,4.22,2.76,1.68.8,1.8.72,2.59,1.23.59.38,1.77,1.17,2.71,2.63,1.05,1.64,1.23,3.23,1.33,4.17.15,1.39.04,2.88,0,3.41-.04.5-.1,1.11-.11,1.15-.09.86-.2,1.57-.28,2.09-.12.25-.34.43-.57.44-.34.01-.71-.34-.7-.83.04-.62.03-1.51-.19-2.55-.22-1.03-.51-2.45-1.61-3.6-1.29-1.35-3.13-1.75-4.08-1.96-.54-.12-1.04-.18-1.89-.45-.91-.3-1.62-.65-2.09-.91.08-3.2.15-6.4.23-9.6Z"/>
      </g>
    </g>
  </g>
</svg>