<?xml version="1.0" encoding="UTF-8"?>
<svg id="Layer_2" data-name="Layer 2" xmlns="http://www.w3.org/2000/svg" viewBox="0 0 140.26 148.62">
  <defs>
    <style>
      .cls-1 {
        stroke-width: 2.7px;
      }

      .cls-1, .cls-2, .cls-3, .cls-4 {
        fill: none;
        stroke-miterlimit: 10;
      }

      .cls-1, .cls-4 {
        stroke: #204653;
      }

      .cls-2 {
        stroke: #224653;
      }

      .cls-2, .cls-3, .cls-4 {
        stroke-linecap: round;
        stroke-width: 2.5px;
      }

      .cls-3 {
        stroke: #244653;
      }

      .cls-5 {
        fill: #224653;
      }

      .cls-5, .cls-6, .cls-7 {
        stroke-width: 0px;
      }

      .cls-6 {
        fill: #244653;
      }

      .cls-7 {
        fill: #204653;
      }
    </style>
  </defs>
  <g id="muziek">
    <g>
      <g>
        <path class="cls-6" d="M.87,146.89c1.75,2.29,5.58,2.3,8.55.03,2.97-2.28,3.96-5.98,2.2-8.26-1.75-2.29-5.58-2.3-8.55-.03-2.97,2.28-3.96,5.98-2.2,8.26Z"/>
        <path class="cls-3" d="M11.23,111.98v29.24"/>
      </g>
      <g>
        <g>
          <path class="cls-7" d="M53.63,75.72c1.75,2.29,5.58,2.3,8.55.03,2.97-2.28,3.96-5.98,2.2-8.26-1.75-2.29-5.58-2.3-8.55-.03-2.97,2.28-3.96,5.98-2.2,8.26Z"/>
          <path class="cls-4" d="M89.42,66.02c0-9.27,0-18.54-.01-27.81,0-.03-.03-.05-.05-.04-8.47,1.7-16.93,3.4-25.4,5.1-.02,0-.04.02-.04.04.03,8.91.05,17.83.08,26.74"/>
        </g>
        <path class="cls-7" d="M79.05,71.69c1.75,2.29,5.58,2.3,8.55.03,2.97-2.28,3.96-5.98,2.2-8.26-1.75-2.29-5.58-2.3-8.55-.03-2.97,2.28-3.96,5.98-2.2,8.26Z"/>
        <rect class="cls-7" x="63.73" y="41.18" width="25.41" height="5.87" transform="translate(-7.16 15.83) rotate(-11.3)"/>
        <path class="cls-1" d="M63.96,54.04l25.46-5.06"/>
      </g>
      <g>
        <g>
          <path class="cls-5" d="M23.25,121.94c1.75,2.29,5.58,2.3,8.55.03,2.97-2.28,3.96-5.98,2.2-8.26-1.75-2.29-5.58-2.3-8.55-.03-2.97,2.28-3.96,5.98-2.2,8.26Z"/>
          <path class="cls-2" d="M59.05,112.24c0-9.27,0-18.54-.01-27.81,0-.03-.03-.05-.05-.04-8.47,1.7-16.93,3.4-25.4,5.1-.02,0-.04.02-.04.04.03,8.91.05,17.83.08,26.74"/>
        </g>
        <path class="cls-5" d="M48.67,117.91c1.75,2.29,5.58,2.3,8.55.03,2.97-2.28,3.96-5.98,2.2-8.26-1.75-2.29-5.58-2.3-8.55-.03-2.97,2.28-3.96,5.98-2.2,8.26Z"/>
        <rect class="cls-5" x="33.36" y="87.4" width="25.41" height="5.87" transform="translate(-16.81 10.78) rotate(-11.3)"/>
      </g>
      <g>
        <g>
          <path class="cls-5" d="M103.22,38.81c1.75,2.29,5.58,2.3,8.55.03,2.97-2.28,3.96-5.98,2.2-8.26-1.75-2.29-5.58-2.3-8.55-.03-2.97,2.28-3.96,5.98-2.2,8.26Z"/>
          <path class="cls-2" d="M139.01,29.11c0-9.27,0-18.54-.01-27.81,0-.03-.03-.05-.05-.04-8.47,1.7-16.93,3.4-25.4,5.1-.02,0-.04.02-.04.04.03,8.91.05,17.83.08,26.74"/>
        </g>
        <path class="cls-5" d="M128.63,34.78c1.75,2.29,5.58,2.3,8.55.03,2.97-2.28,3.96-5.98,2.2-8.26-1.75-2.29-5.58-2.3-8.55-.03-2.97,2.28-3.96,5.98-2.2,8.26Z"/>
        <rect class="cls-5" x="113.32" y="4.27" width="25.41" height="5.87" transform="translate(1.03 24.83) rotate(-11.3)"/>
      </g>
    </g>
  </g>
</svg>