<?xml version="1.0" encoding="UTF-8"?>
<svg id="Layer_2" data-name="Layer 2" xmlns="http://www.w3.org/2000/svg" viewBox="0 0 21.92 87.08">
  <defs>
    <style>
      .cls-1 {
        fill: #f4a261;
        stroke-width: 0px;
      }
    </style>
  </defs>
  <g id="repair">
    <path class="cls-1" d="M2.12,2.82c-1.02.03-1.77,2.96-1.99,4.64C0,8.45-.24,10.4.64,12.61c.15.37.55,1.32,1.35,2.35,1.09,1.4,2.16,1.96,2.76,2.45,1.12.91,2.21,2.84,1.92,7.38.44,13,.88,26,1.32,39,.3,2.2-.06,3.77-.45,4.81-.62,1.64-1.8,3.21-2.86,4.6-1.14,1.51-1.78,2.08-2.01,3.31-.21,1.09.04,1.96.27,2.78.89,3.08,3.12,4.9,4.46,5.97,1.14.9,2.67,2.13,3.23,1.72.45-.33.29-1.76-1.85-6.09-.17-2.32,1.38-4.42,3.6-4.94,2.13-.5,4.36.58,5.31,2.6.93,5.29,1.72,5.72,2.05,5.72,1,0,1.81-4.13,2.03-6.49.2-2.06.29-3.21-.32-4.48-.84-1.75-2.11-1.82-3.49-3.62-.68-.89-1.51-2.35-1.79-4.71-.73-14.57-1.46-29.14-2.19-43.71-.35-1.62-.15-2.84.04-3.55.35-1.3.99-2.19,1.94-3.51,1.3-1.79,1.7-1.79,2.17-2.69,1.26-2.38.08-5.12-.06-5.45-.57-1.35-1.4-2.1-3.08-3.6C13.65,1.28,11.86-.33,11.29.06c-.39.26-.34,1.54,1.95,6.43-.63,2.07-2.23,3.64-4.19,4.05-1.83.38-3.31-.36-3.76-.61-.67-1.99-1.35-3.98-2.02-5.97-.3-.59-.69-1.15-1.14-1.14Z"/>
  </g>
</svg>